<svg xmlns="http://www.w3.org/2000/svg" viewBox="0 0 100 100">
  <defs>
    <linearGradient id="bg" x1="0%" y1="0%" x2="100%" y2="100%">
      <stop offset="0%" stop-color="#4A9B8C"/>
      <stop offset="100%" stop-color="#3a8b7c"/>
    </linearGradient>
  </defs>
  <circle cx="50" cy="50" r="48" fill="url(#bg)"/>
  <!-- 葉のモチーフ（やわらかいハート型の葉） -->
  <g transform="translate(50,46) scale(0.9)">
    <path d="M0,-22 C12,-22 22,-12 22,2 C22,16 8,28 0,32 C-8,28 -22,16 -22,2 C-22,-12 -12,-22 0,-22Z" fill="rgba(255,255,255,0.95)"/>
    <!-- 葉脈 -->
    <line x1="0" y1="-14" x2="0" y2="24" stroke="#4A9B8C" stroke-width="1.5" stroke-linecap="round" opacity="0.5"/>
    <path d="M0,0 C-8,-4 -12,-10 -14,-14" fill="none" stroke="#4A9B8C" stroke-width="1.2" stroke-linecap="round" opacity="0.4"/>
    <path d="M0,0 C8,-4 12,-10 14,-14" fill="none" stroke="#4A9B8C" stroke-width="1.2" stroke-linecap="round" opacity="0.4"/>
    <path d="M0,8 C-7,4 -10,0 -12,-2" fill="none" stroke="#4A9B8C" stroke-width="1" stroke-linecap="round" opacity="0.35"/>
    <path d="M0,8 C7,4 10,0 12,-2" fill="none" stroke="#4A9B8C" stroke-width="1" stroke-linecap="round" opacity="0.35"/>
  </g>
</svg>
