<svg xmlns="http://www.w3.org/2000/svg" viewBox="0 0 40 40" width="40" height="40">
  <defs>
    <linearGradient id="leaf-bg" x1="0%" y1="0%" x2="100%" y2="100%">
      <stop offset="0%" stop-color="#4A9B8C"/>
      <stop offset="100%" stop-color="#3a8b7c"/>
    </linearGradient>
  </defs>
  <circle cx="20" cy="20" r="19" fill="url(#leaf-bg)"/>
  <g transform="translate(20,18.5) scale(0.38)">
    <path d="M0,-22 C12,-22 22,-12 22,2 C22,16 8,28 0,32 C-8,28 -22,16 -22,2 C-22,-12 -12,-22 0,-22Z" fill="rgba(255,255,255,0.95)"/>
    <line x1="0" y1="-14" x2="0" y2="24" stroke="#4A9B8C" stroke-width="1.8" stroke-linecap="round" opacity="0.5"/>
    <path d="M0,0 C-8,-4 -12,-10 -14,-14" fill="none" stroke="#4A9B8C" stroke-width="1.5" stroke-linecap="round" opacity="0.4"/>
    <path d="M0,0 C8,-4 12,-10 14,-14" fill="none" stroke="#4A9B8C" stroke-width="1.5" stroke-linecap="round" opacity="0.4"/>
    <path d="M0,8 C-7,4 -10,0 -12,-2" fill="none" stroke="#4A9B8C" stroke-width="1.2" stroke-linecap="round" opacity="0.35"/>
    <path d="M0,8 C7,4 10,0 12,-2" fill="none" stroke="#4A9B8C" stroke-width="1.2" stroke-linecap="round" opacity="0.35"/>
  </g>
</svg>
